<?xml version="1.0" encoding="UTF-8"?>
<svg version="1.1" xmlns="http://www.w3.org/2000/svg" width="2250" height="2250">
<path d="M0 0 C0.81291504 0.1129541 1.62583008 0.2259082 2.46337891 0.34228516 C41.8918264 6.1094773 78.65933125 24.57892562 107.625 51.77734375 C109.69963814 53.71890477 111.82171445 55.55244253 114 57.375 C128.79327636 70.30028627 140.09604927 86.82971142 151 103 C152.7938975 89.40015123 154.38015893 75.7850584 155.7890625 62.140625 C155.8641378 61.41419296 155.9392131 60.68776093 156.01656342 59.9393158 C156.63583438 53.9381192 157.24887974 47.93628948 157.86126709 41.93438721 C158.32378483 37.40304533 158.7886132 32.87195268 159.25666428 28.34117889 C159.47222682 26.24528051 159.68437806 24.14905518 159.89639282 22.05279541 C160.02677948 20.78917175 160.15716614 19.5255481 160.29150391 18.22363281 C160.46113144 16.56016815 160.46113144 16.56016815 160.63418579 14.86309814 C161 12 161 12 162 8 C193.68 8 225.36 8 258 8 C255.69475683 34.51029648 255.69475683 34.51029648 254.35180664 47.36132812 C254.19861274 48.84101509 254.04555663 50.32071632 253.8926239 51.8004303 C253.40150547 56.54435522 252.90617471 61.28783526 252.41015625 66.03125 C252.28260173 67.25210391 252.28260173 67.25210391 252.15247035 68.49762154 C251.3481684 76.19538697 250.5424523 83.89300283 249.73275089 91.59020233 C248.70544761 101.35661463 247.68581648 111.12376147 246.67639643 120.89203882 C245.96057035 127.81312862 245.2361908 134.733291 244.5054521 141.65282202 C244.07115324 145.76743241 243.64056056 149.88234964 243.21919441 153.99830627 C242.82428173 157.85407045 242.41876496 161.70857362 242.00515938 165.56237602 C241.85575646 166.97164551 241.71014787 168.38132346 241.56870651 169.79141426 C240.5616161 179.80088865 238.80056898 186.46605884 233.3125 194.9375 C221.94928398 213.0637177 214.23905539 232.7966451 211 254 C210.81695313 255.13179687 210.63390625 256.26359375 210.4453125 257.4296875 C205.55944671 298.19887299 215.41216911 340.3393244 240.38671875 373.22265625 C243.25604142 376.78301998 246.07023894 380.17095089 249.48828125 383.21875 C258.71485621 391.81256144 256.43095291 395.0940526 258 410 C226.32 410 194.64 410 162 410 C159.70286793 395.06864157 159.70286793 395.06864157 159.05444336 388.55102539 C158.97772903 387.80773987 158.90101471 387.06445435 158.82197571 386.29864502 C158.57494918 383.89861031 158.33241746 381.49814467 158.08984375 379.09765625 C157.91607577 377.40421619 157.74196135 375.71081164 157.56752014 374.0174408 C157.11308573 369.59951102 156.66220972 365.18122661 156.21246338 360.76281738 C155.49007846 353.66853244 154.76372553 346.57465753 154.03445625 339.48107719 C153.78181619 337.01628995 153.53165637 334.55125987 153.28172302 332.0861969 C153.12662932 330.57185934 152.97144708 329.05753085 152.81616211 327.54321289 C152.74809357 326.86520126 152.68002502 326.18718964 152.6098938 325.4886322 C152.21148411 321.62942135 151.67828635 317.81986437 151 314 C150.40574219 314.92039062 149.81148437 315.84078125 149.19921875 316.7890625 C141.35021731 328.82462546 132.86144142 340.11880913 123.1171875 350.6953125 C121.01057905 352.98848406 118.97496719 355.33291729 116.9375 357.6875 C113.23657784 361.84649308 109.2654481 365.43417566 105 369 C104.19691406 369.71414063 103.39382813 370.42828125 102.56640625 371.1640625 C59.89783059 408.32506315 5.32315276 423.24209167 -50.52246094 419.78173828 C-78.85170312 417.45033261 -105.9828544 410.64631193 -131 397 C-131.61601074 396.6685498 -132.23202148 396.33709961 -132.86669922 395.99560547 C-145.29026144 389.27670669 -156.20554788 381.06931137 -167 372 C-167.73347656 371.3915625 -168.46695313 370.783125 -169.22265625 370.15625 C-173.97388243 366.12823551 -177.99254077 361.75636811 -182 357 C-182.82371094 356.07574219 -183.64742187 355.15148438 -184.49609375 354.19921875 C-216.05675967 318.52491277 -232.96579688 269.17527235 -233.203125 221.8046875 C-233.21018463 220.86253387 -233.21724426 219.92038025 -233.22451782 218.94967651 C-233.45320691 179.4677043 -233.45320691 179.4677043 -230 162 C-229.80132324 160.96649414 -229.60264648 159.93298828 -229.39794922 158.86816406 C-223.56625986 129.36462104 -212.82607278 101.38950052 -195 77 C-194.60973633 76.45037598 -194.21947266 75.90075195 -193.81738281 75.33447266 C-181.5066137 58.0963512 -165.64238992 42.70158515 -148 31 C-147.40477539 30.60312988 -146.80955078 30.20625977 -146.19628906 29.79736328 C-103.34650981 1.70434362 -50.3091015 -7.14955962 0 0 Z M-106 114.125 C-123.88566163 134.33383834 -134.87709078 160.23220671 -138 187 C-138.16435547 188.18335938 -138.16435547 188.18335938 -138.33203125 189.390625 C-142.94689016 228.52462855 -133.73233256 269.00918614 -109.19921875 300.140625 C-89.52093549 324.29151898 -61.28118659 340.57016049 -30.19140625 344.56640625 C-12.55647236 346.30536222 5.72243031 346.14842935 23 342 C23.71446289 341.83902832 24.42892578 341.67805664 25.16503906 341.51220703 C54.41607507 334.8080396 79.54285921 318.58616183 101 298 C101.53270508 297.49452637 102.06541016 296.98905273 102.61425781 296.46826172 C124.63191932 275.49065018 140.88485083 249.41088024 153.25 221.75 C153.64533936 220.89301514 154.04067871 220.03603027 154.44799805 219.15307617 C157.51627117 212.02230559 157.35687539 207.17712386 154.5390625 200.01953125 C153.91442717 198.61117431 153.27564716 197.20903029 152.625 195.8125 C152.2748584 195.04639404 151.9247168 194.28028809 151.56396484 193.4909668 C144.51995765 178.30528419 136.83548154 163.57358949 127 150 C126.59426758 149.43877441 126.18853516 148.87754883 125.77050781 148.29931641 C120.1329424 140.58063544 114.01476774 133.3872389 107.41210938 126.47949219 C106.4756544 125.4983516 105.54457769 124.51204753 104.61914062 123.52050781 C92.84379447 110.92304651 79.05624877 100.39847965 64 92 C63.41492676 91.67193359 62.82985352 91.34386719 62.22705078 91.00585938 C46.64309205 82.3924798 29.59883299 76.68842337 12 74 C10.81664062 73.81695313 9.63328125 73.63390625 8.4140625 73.4453125 C-35.68206945 68.16073838 -75.46290947 81.97068038 -106 114.125 Z " fill="#333334" transform="translate(850,959)"/>
<path d="M0 0 C1.36705078 1.06347656 1.36705078 1.06347656 2.76171875 2.1484375 C21.57026652 17.10083949 37.52277079 36.55130759 45.0625 59.625 C45.31854004 60.40117676 45.57458008 61.17735352 45.83837891 61.97705078 C48.44514893 70.07280567 51 78.44730966 51 87 C49.35 87.33 47.7 87.66 46 88 C46 88.33 46 88.66 46 89 C44.02 89 42.04 89 40 89 C40 88.34 40 87.68 40 87 C36.04878772 87.11817917 32.09781771 87.24242233 28.14697266 87.37231445 C26.14105193 87.43698251 24.13497772 87.49683106 22.12890625 87.55664062 C20.87207031 87.59853516 19.61523438 87.64042969 18.3203125 87.68359375 C17.15773926 87.72025146 15.99516602 87.75690918 14.79736328 87.79467773 C12.0464499 87.81821659 12.0464499 87.81821659 10 89 C7.13866944 89.28994035 4.30640332 89.52020948 1.4375 89.6875 C0.6242627 89.73511475 -0.18897461 89.78272949 -1.02685547 89.83178711 C-6.71035688 90.09644044 -11.53515819 89.72041316 -17 88 C-17.268125 86.97003906 -17.53625 85.94007813 -17.8125 84.87890625 C-21.70135082 70.51823963 -27.49883416 50.33471549 -40.29296875 41.3984375 C-41.81347322 40.56814527 -43.35669921 39.77781619 -44.921875 39.03515625 C-47.37448719 37.81346033 -49.2313912 36.13239941 -51.2734375 34.32421875 C-56.1774243 30.5630162 -62.04327329 27.91089002 -67.625 25.3125 C-70 24 -70 24 -71 21 C-69.515 20.505 -69.515 20.505 -68 20 C-70.62353518 18.99600476 -73.24867795 17.99665555 -75.875 17 C-76.62136719 16.71382812 -77.36773438 16.42765625 -78.13671875 16.1328125 C-81.95985011 14.56663352 -81.95985011 14.56663352 -86 14 C-85.01 15.65 -84.02 17.3 -83 19 C-83.66 19.33 -84.32 19.66 -85 20 C-86.76059014 19.28683774 -88.49045314 18.49738528 -90.203125 17.67578125 C-97.30820526 14.60632712 -104.08999271 13.81517283 -111.75 13.1875 C-113.03132813 13.06697266 -114.31265625 12.94644531 -115.6328125 12.82226562 C-118.75407763 12.53110283 -121.87579775 12.25735888 -125 12 C-124.67 11.34 -124.34 10.68 -124 10 C-124.99 10 -125.98 10 -127 10 C-127 10.66 -127 11.32 -127 12 C-127.84304688 12.13277344 -128.68609375 12.26554688 -129.5546875 12.40234375 C-130.65039062 12.57894531 -131.74609375 12.75554688 -132.875 12.9375 C-133.96554687 13.11152344 -135.05609375 13.28554688 -136.1796875 13.46484375 C-138.93821546 13.85551159 -138.93821546 13.85551159 -141 15 C-142.5912342 15.21941219 -144.18929031 15.39059852 -145.7890625 15.53515625 C-147.20058594 15.66567383 -147.20058594 15.66567383 -148.640625 15.79882812 C-149.62546875 15.88583984 -150.6103125 15.97285156 -151.625 16.0625 C-152.61757812 16.15337891 -153.61015625 16.24425781 -154.6328125 16.33789062 C-157.08823868 16.56218436 -159.54394389 16.78273107 -162 17 C-162 16.34 -162 15.68 -162 15 C-162.99 14.67 -163.98 14.34 -165 14 C-161.37 12.35 -157.74 10.7 -154 9 C-160.59415368 10.04669106 -164.53181717 11.8440503 -169.9140625 15.734375 C-172.68460541 17.41537856 -174.83241579 17.48732065 -178 17 C-178 16.34 -178 15.68 -178 15 C-183.88427009 17.67574455 -188.92756276 20.38039042 -193.625 24.86328125 C-195 26 -195 26 -197 26 C-197.33 26.99 -197.66 27.98 -198 29 C-200.09697179 30.64638281 -202.16492863 32.1484437 -204.375 33.625 C-204.96539063 34.03234375 -205.55578125 34.4396875 -206.1640625 34.859375 C-208.7556645 36.62213131 -211.01210722 38.00403574 -214 39 C-215.45644757 41.08812458 -215.45644757 41.08812458 -216.6875 43.5625 C-217.12449219 44.38878906 -217.56148437 45.21507812 -218.01171875 46.06640625 C-218.33785156 46.70449219 -218.66398437 47.34257813 -219 48 C-219.66 47.67 -220.32 47.34 -221 47 C-221 48.32 -221 49.64 -221 51 C-222.46403051 54.12326509 -224.12021581 57.10469988 -225.78515625 60.125 C-227.1543651 63.36531419 -226.93774405 63.80341335 -226 67 C-226.34168695 70.35280316 -226.80947511 73.65246527 -227.328125 76.98046875 C-227.93844184 81.24465614 -227.94912054 84.7948687 -227 89 C-227.99 88.67 -228.98 88.34 -230 88 C-229.525625 88.845625 -229.05125 89.69125 -228.5625 90.5625 C-227 94 -227 94 -226.62890625 97.23046875 C-225.8991084 101.60472292 -224.41283209 104.85506534 -222.375 108.75 C-221.83649414 109.79933716 -221.83649414 109.79933716 -221.28710938 110.86987305 C-218.19356024 116.80940555 -214.79045527 122.47676517 -211 128 C-210.36191406 128.94746094 -209.72382812 129.89492187 -209.06640625 130.87109375 C-203.85134476 138.3632971 -198.14835603 143.72232713 -190.8125 149.0625 C-188.26997823 150.91611236 -186.29514401 152.69683397 -184.375 155.1875 C-181.76715029 158.27574308 -179.60097797 159.27453139 -176 161 C-174.87271484 162.12921875 -174.87271484 162.12921875 -173.72265625 163.28125 C-170.33215474 166.66688709 -166.61493462 169.37721256 -162.72851562 172.16210938 C-159.80939555 174.33011083 -158.01178992 175.98200726 -155.98046875 179.08203125 C-153.64374986 182.52488925 -151.50773172 183.77169309 -147.875 185.75 C-142.14878321 189.0269643 -137.77888715 192.83737476 -133.234375 197.6640625 C-131.20999909 199.78045549 -129.13681222 201.64531398 -126.875 203.5 C-125.92625 204.325 -124.9775 205.15 -124 206 C-124 206.66 -124 207.32 -124 208 C-123.15308594 208.09861328 -123.15308594 208.09861328 -122.2890625 208.19921875 C-119.0747335 209.32368538 -117.64921465 211.2892047 -115.375 213.8125 C-110.00101633 219.52841264 -103.89911658 223.68195906 -97.28271484 227.85083008 C-93.00034549 230.56610388 -89.46037492 233.24238056 -86 237 C-75.06200898 249.14674886 -75.06200898 249.14674886 -61 257 C-61 257.66 -61 258.32 -61 259 C-59.9171875 259.3403125 -59.9171875 259.3403125 -58.8125 259.6875 C-55.43168723 261.26521263 -53.63373234 263.35869946 -51 266 C-48.91443015 267.68501226 -46.82792029 269.32689921 -44.6875 270.9375 C-44.11717041 271.370625 -43.54684082 271.80375 -42.95922852 272.25 C-41.82626875 273.10954202 -40.69210786 273.96750358 -39.55664062 274.82373047 C-38.2043509 275.84558303 -36.85932204 276.87703069 -35.515625 277.91015625 C-34.82984375 278.43480469 -34.1440625 278.95945312 -33.4375 279.5 C-32.85871094 279.9434375 -32.27992188 280.386875 -31.68359375 280.84375 C-30.00239656 282.07236951 -30.00239656 282.07236951 -27.953125 282.91796875 C-25.59272686 284.22562932 -24.7531102 285.54992002 -23.3125 287.8125 C-20.43205526 291.86564489 -17.45376653 293.72108033 -13.046875 295.90234375 C-10.58357115 297.22331394 -8.92637871 298.9995298 -7 301 C-6.01 301 -5.02 301 -4 301 C-3.34 301.66 -2.68 302.32 -2 303 C-1.41992188 302.21496094 -0.83984375 301.42992187 -0.2421875 300.62109375 C6.92583737 290.98092829 6.92583737 290.98092829 10.5 286.875 C12.96056738 284.2867271 12.96056738 284.2867271 14 282 C14.66 282 15.32 282 16 282 C16.15855469 281.40832031 16.31710937 280.81664062 16.48046875 280.20703125 C18.06627192 274.83632771 19.6929237 271.76869176 24 268 C26.28230143 265.34475641 26.28230143 265.34475641 27.375 262.109375 C28.15210759 259.48663688 29.35830445 258.27410604 31.25 256.3125 C34.53643497 252.7443706 36.65614455 249.1859689 38.6640625 244.78515625 C40 243 40 243 42.6484375 242.24609375 C43.42445313 242.16488281 44.20046875 242.08367187 45 242 C45.309375 240.824375 45.309375 240.824375 45.625 239.625 C48.39386065 232.32527646 52.34688522 226.33007965 58 221 C58.33 220.01 58.66 219.02 59 218 C59.99 217.67 60.98 217.34 62 217 C63.01847486 215.00934459 64.01517978 213.00751815 65 211 C67.52842721 206.59564293 67.52842721 206.59564293 70 205 C72.80510232 204.6322723 75.4215781 204.7667034 78.24609375 204.92578125 C83.81290386 205.03584305 89.24573781 204.29762476 94.76416016 203.62207031 C96.83884007 203.37848612 98.91923626 203.18453256 101 203 C101.33 203.33 101.66 203.66 102 204 C105.54632568 204.41978328 109.12125229 204.5254231 112.6875 204.6875 C114.25902832 204.75892212 114.25902832 204.75892212 115.86230469 204.83178711 C122.80963964 205.080978 129.11818627 204.72082147 135.9609375 203.48046875 C140.65129293 202.73893441 145.26883852 202.8621304 150 203 C145.30797627 209.28462217 140.55079714 215.51703437 135.76757812 221.73242188 C134.16987143 223.8153159 132.58206903 225.9052094 131 228 C130.51160645 228.64179199 130.02321289 229.28358398 129.52001953 229.94482422 C126.98523991 233.2419789 126.98523991 233.2419789 125.54467773 237.08032227 C124.64510211 240.25081225 121.66568739 241.24064632 119 243 C117.26461808 245.39224959 117.26461808 245.39224959 116 248 C113.33333333 252.88888889 113.33333333 252.88888889 110 254 C110 255.32 110 256.64 110 258 C107.92446352 258.5534764 106.15634036 259 104 259 C103.34 260.65 102.68 262.3 102 264 C103.65 263.34 105.3 262.68 107 262 C103.20222795 266.55193954 99.38647683 271.00343222 95 275 C94.01 275 93.02 275 92 275 C91.6596875 276.0828125 91.6596875 276.0828125 91.3125 277.1875 C89.72668125 280.58568303 87.73876676 282.45230999 85 285 C81.48793728 288.36883014 78.50065443 291.82582175 75.625 295.75 C74.85285156 296.79285156 74.08070313 297.83570313 73.28515625 298.91015625 C72.15400391 300.43962891 72.15400391 300.43962891 71 302 C69.69471651 303.7346206 68.38303597 305.46446246 67.0625 307.1875 C66.51722656 307.90292969 65.97195313 308.61835937 65.41015625 309.35546875 C64 311 64 311 62 312 C62.66 312.66 63.32 313.32 64 314 C63.2575 314.165 62.515 314.33 61.75 314.5 C58.20005406 316.43633415 57.54951804 318.46572436 56.08984375 322.125 C55 324 55 324 52.94140625 324.9375 C52.30074219 325.288125 51.66007812 325.63875 51 326 C50.64559801 327.66231409 50.31513276 329.32979635 50 331 C48.01081548 333.67838331 45.83527072 336.10710952 43.6171875 338.59765625 C41.83809533 340.79483562 41.83809533 340.79483562 41.8984375 343 C43.55594803 346.00938082 46.08296618 347.86419871 48.75 349.9375 C52.73841087 353.0998797 56.46456675 356.34017188 60 360 C60.99 359.67 61.98 359.34 63 359 C63 360.65 63 362.3 63 364 C63.86625 364.2475 64.7325 364.495 65.625 364.75 C69.79721654 366.29526538 74.02258953 367.92300274 76 372.125 C76.33 372.74375 76.66 373.3625 77 374 C77.87785156 374.25910156 78.75570313 374.51820313 79.66015625 374.78515625 C83.74956476 376.2726487 86.2425373 378.43665367 89.4375 381.3125 C90.58041526 382.31044752 91.72493016 383.3065662 92.87109375 384.30078125 C93.68296143 385.00775146 93.68296143 385.00775146 94.51123047 385.72900391 C98.07973882 388.77551989 101.86911417 391.35034218 105.9375 393.6875 C106.618125 394.120625 107.29875 394.55375 108 395 C108 395.66 108 396.32 108 397 C107.01 397 106.02 397 105 397 C109.455 399.97 109.455 399.97 114 403 C114.33 402.34 114.66 401.68 115 401 C116.1725131 401.95117134 117.33787015 402.91117009 118.5 403.875 C119.1496875 404.40867187 119.799375 404.94234375 120.46875 405.4921875 C120.9740625 405.98976563 121.479375 406.48734375 122 407 C122 407.66 122 408.32 122 409 C120.68 408.34 119.36 407.68 118 407 C118 407.66 118 408.32 118 409 C120.16867199 411.23559978 120.16867199 411.23559978 123 413 C124.2375 412.938125 124.2375 412.938125 125.5 412.875 C128 413 128 413 129.42578125 414.25 C133 418.43838028 133 418.43838028 133 421 C133.71929688 421.23589844 134.43859375 421.47179688 135.1796875 421.71484375 C138.47509326 423.21648986 140.50689475 425.06553097 143.125 427.5625 C147.70752063 431.84361995 152.42293312 435.84233686 157.3125 439.7734375 C159.98944659 441.99125662 162.52289538 444.31455693 165.0625 446.6875 C169.04373747 450.33802765 173.11357762 453.07033924 177.87109375 455.61328125 C180.2131047 457.13881132 181.38847475 458.74432516 183 461 C178.45094217 461.14564422 173.90179317 461.28786711 169.35253906 461.42724609 C167.8127979 461.47486366 166.27308277 461.52333276 164.73339844 461.57275391 C135.54681976 462.50748747 135.54681976 462.50748747 126.29296875 461.21875 C122.14453632 460.82298813 117.98259217 460.98378076 113.8203125 461.0625 C111 461 111 461 108 460 C104.31617231 459.86843473 101.50946415 459.83017862 98 461 C94.8375927 461.25014248 91.67129315 461.2311513 88.5 461.25 C87.19869141 461.2809375 87.19869141 461.2809375 85.87109375 461.3125 C85.03707031 461.31765625 84.20304687 461.3228125 83.34375 461.328125 C82.58255859 461.3374707 81.82136719 461.34681641 81.03710938 461.35644531 C78.44034443 460.90207369 77.55066256 460.10411843 76 458 C76 457.01 76 456.02 76 455 C75.26652344 454.74992187 74.53304688 454.49984375 73.77734375 454.2421875 C70.77438176 452.89909058 68.94519067 451.37602683 66.5625 449.125 C63.95478703 446.71351961 61.47197165 444.53550762 58.4375 442.6875 C57.633125 442.130625 56.82875 441.57375 56 441 C56 440.01 56 439.02 56 438 C54.68 437.34 53.36 436.68 52 436 C52 435.01 52 434.02 52 433 C51.29875 432.938125 50.5975 432.87625 49.875 432.8125 C45.31927986 431.52501387 42.32257423 428.45939226 39.1875 425 C36.44635295 422.49380841 33.45317197 420.97688368 30.19140625 419.23046875 C26.85273989 417.35581651 23.73900188 415.47800376 22 412 C21.29875 411.5875 20.5975 411.175 19.875 410.75 C12.74217349 406.40827952 7.89598785 400.69663992 3 394 C2.34 394.33 1.68 394.66 1 395 C-1.625 394.0625 -1.625 394.0625 -4 393 C-4.5775 393.7425 -5.155 394.485 -5.75 395.25 C-8.37993848 398.46436925 -10.99729162 401.24119366 -14.3125 403.75 C-16.64565768 405.70334132 -18.33126986 407.54416384 -20.25 409.875 C-23.33293441 413.48283057 -26.51030697 415.85841206 -30.5234375 418.34765625 C-34.48368189 420.98990133 -38.01727705 424.13457249 -41.6171875 427.2421875 C-44 429 -44 429 -47 429 C-50.18217475 430.59108738 -52.73049669 432.59539505 -55.375 434.9375 C-60.23364789 439.17297348 -64.33878639 442.18503371 -71 442 C-71.391875 442.41894531 -71.78375 442.83789062 -72.1875 443.26953125 C-74.82480597 445.78747639 -77.97720732 447.11349497 -81.25 448.625 C-81.89324219 448.93695312 -82.53648437 449.24890625 -83.19921875 449.5703125 C-87.47627811 451.56684725 -91.27415793 452.43920786 -96 453 C-97.67063747 453.99335201 -99.33675599 454.99431758 -101 456 C-105.91536063 457.72812016 -110.88263228 459.0313554 -116 460 C-116 460.66 -116 461.32 -116 462 C-126.94778772 465.56958435 -136.53983501 466.50497667 -148 466 C-148 466.66 -148 467.32 -148 468 C-151.00240084 468.87467792 -153.63203274 469.10657783 -156.75390625 469.0625 C-157.68050049 469.05428223 -158.60709473 469.04606445 -159.56176758 469.03759766 C-160.55200928 469.02519043 -161.54225098 469.0127832 -162.5625 469 C-169.09537175 468.94594611 -175.56856533 468.96969921 -182.0847168 469.45825195 C-199.78844114 470.78336359 -218.11099243 469.71902902 -235 464 C-236.11890625 463.62875 -237.2378125 463.2575 -238.390625 462.875 C-239.25171875 462.58625 -240.1128125 462.2975 -241 462 C-241 462.66 -241 463.32 -241 464 C-246.3712607 463.19871357 -251.60455658 461.9757436 -256.875 460.6875 C-258.16470703 460.38682617 -258.16470703 460.38682617 -259.48046875 460.08007812 C-265.12565355 458.69662237 -269.89213082 456.77910748 -275 454 C-275 453.01 -275 452.02 -275 451 C-275.62648438 450.95101563 -276.25296875 450.90203125 -276.8984375 450.8515625 C-277.71570312 450.77679687 -278.53296875 450.70203125 -279.375 450.625 C-280.18710938 450.55539062 -280.99921875 450.48578125 -281.8359375 450.4140625 C-284 450 -284 450 -286 448 C-287.73202381 447.45945008 -289.48641044 446.98894174 -291.25 446.5625 C-296.6653061 445.14151237 -301.19394823 443.85765325 -305.1875 439.75 C-307.78975657 437.20557136 -310.09899793 435.6239226 -313.1875 433.75 C-319.08911005 430.10722722 -323.95017741 425.72029272 -329 421 C-331.8898903 418.50447952 -334.85975282 416.11158212 -337.84765625 413.734375 C-355.51893408 398.93149421 -367.77305554 371.97222734 -370.87109375 349.4765625 C-371 347 -371 347 -370 345 C-370.32207076 343.33112034 -370.65723483 341.66475251 -371 340 C-371.0368811 338.17868015 -371.01640984 336.35560992 -370.94921875 334.53515625 C-370.91119141 333.49407715 -370.87316406 332.45299805 -370.83398438 331.38037109 C-370.76147461 329.7380249 -370.76147461 329.7380249 -370.6875 328.0625 C-370.64044922 326.94182129 -370.59339844 325.82114258 -370.54492188 324.66650391 C-370.16943951 316.65969024 -369.3774726 308.89894444 -368 301 C-367.8659375 299.86691406 -367.731875 298.73382812 -367.59375 297.56640625 C-365.08196079 282.47914605 -355.6113865 266.68330422 -345.83203125 255.16796875 C-344.09777835 253.11570785 -342.54970843 251.00548363 -341 248.8125 C-335.14265974 240.97654078 -326.90580699 235.59131804 -319 230 C-317.948125 229.21625 -316.89625 228.4325 -315.8125 227.625 C-313 226 -313 226 -309.296875 225.16015625 C-304.84403623 224.09597491 -301.33235415 222.16327528 -297.4375 219.8125 C-278.41273942 208.7718794 -258.24629346 201.5082983 -237 196 C-239.80129981 192.36176114 -239.80129981 192.36176114 -243.25 189.375 C-243.8275 188.92125 -244.405 188.4675 -245 188 C-245 187.01 -245 186.02 -245 185 C-247.33493462 182.86520263 -249.63258659 181.19916423 -252.4140625 179.69140625 C-255.36573546 177.76078028 -257.04489946 175.73132247 -259.1875 172.9375 C-263.05079396 168.06499281 -267.18745955 163.71068416 -271.625 159.36328125 C-274.9185856 156.0859469 -278.23117462 152.74066475 -281 149 C-281 148.34 -281 147.68 -281 147 C-281.85851563 146.69255859 -281.85851563 146.69255859 -282.734375 146.37890625 C-285.81736724 144.50253339 -287.38312389 141.93630387 -289.25 138.9375 C-289.63768555 138.32044189 -290.02537109 137.70338379 -290.42480469 137.06762695 C-304.57200739 113.98489447 -313.59971341 85.23929001 -307.33740234 58.13183594 C-306.53999318 55.10589606 -305.67043203 52.11572929 -304.75 49.125 C-304.46261963 48.17915039 -304.17523926 47.23330078 -303.87915039 46.25878906 C-302.11680848 40.96358876 -300.68988693 38.25769045 -296 35 C-294.23984443 32.3689918 -294.23984443 32.3689918 -292.75 29.4375 C-289.13681482 23.00273854 -284.8882096 17.51314708 -280 12 C-279.39800781 11.31421875 -278.79601563 10.6284375 -278.17578125 9.921875 C-251.6564982 -18.3807004 -210.12297082 -30.17891659 -173 -35 C-172.10764648 -35.11714355 -171.21529297 -35.23428711 -170.29589844 -35.35498047 C-113.96935915 -42.34645242 -45.94235293 -36.55628083 0 0 Z M-145 11 C-141 12 -141 12 -141 12 Z M-232 71 C-233.25949049 72.03406673 -233.25949049 72.03406673 -233.09765625 74.28515625 C-233.08605469 75.20167969 -233.07445312 76.11820313 -233.0625 77.0625 C-233.05347656 77.98160156 -233.04445313 78.90070313 -233.03515625 79.84765625 C-233.02355469 80.55792969 -233.01195312 81.26820313 -233 82 C-230.8312811 79.81099414 -230.8312811 79.81099414 -229 77 C-228.97697743 74.27566639 -228.97697743 74.27566639 -230 72 C-230.66 71.67 -231.32 71.34 -232 71 Z M-176 167 C-174.68 168.32 -173.36 169.64 -172 171 C-171.34 170.67 -170.68 170.34 -170 170 C-172.67247634 167.65712582 -172.67247634 167.65712582 -176 167 Z M-170 171 C-169.01 172.485 -169.01 172.485 -168 174 C-167.34 173.67 -166.68 173.34 -166 173 C-167.32 172.34 -168.64 171.68 -170 171 Z M-166 174 C-165.67 174.66 -165.34 175.32 -165 176 C-164.34 175.67 -163.68 175.34 -163 175 C-163.99 174.67 -164.98 174.34 -166 174 Z M69 208 C70 210 70 210 70 210 Z M-122 210 C-122.33 210.66 -122.66 211.32 -123 212 C-121.68 212.33 -120.36 212.66 -119 213 C-119.99 212.01 -120.98 211.02 -122 210 Z M68 210 C67.67 211.32 67.34 212.64 67 214 C67.66 212.68 68.32 211.36 69 210 C68.67 210 68.34 210 68 210 Z M-223.25 217.9375 C-224.14589844 218.34355469 -225.04179688 218.74960938 -225.96484375 219.16796875 C-256.9606578 233.49413673 -282.72269641 255.83204727 -294.875 288.25 C-298.37122473 298.07854784 -299.32925368 307.75597717 -299.25 318.125 C-299.25773437 319.14464844 -299.26546875 320.16429687 -299.2734375 321.21484375 C-299.24726061 331.41074431 -296.93634954 339.89970184 -293.3125 349.375 C-292.78402466 350.75764038 -292.78402466 350.75764038 -292.24487305 352.16821289 C-289.53465641 359.05285604 -286.48331836 365.07718482 -282 371 C-281.5359375 371.64324219 -281.071875 372.28648437 -280.59375 372.94921875 C-278.314464 375.93035806 -276.74874661 377.46446477 -273 378 C-272.505 378.99 -272.505 378.99 -272 380 C-272.66 380.33 -273.32 380.66 -274 381 C-264.58619249 391.31461305 -264.58619249 391.31461305 -252 396 C-249.6049975 396.96940577 -247.28404295 398.04623118 -244.953125 399.16015625 C-243.04811649 400.13167592 -243.04811649 400.13167592 -241 400 C-241 400.66 -241 401.32 -241 402 C-240.01 402 -239.02 402 -238 402 C-238 402.66 -238 403.32 -238 404 C-224.54177585 411.41575617 -206.43551362 417.72095017 -191 415 C-190.67 414.67 -190.34 414.34 -190 414 C-188.58416052 413.95159523 -187.16619517 413.96345303 -185.75 414 C-174.7133735 414.17302569 -174.7133735 414.17302569 -164 412 C-164 412.66 -164 413.32 -164 414 C-164.66 414.66 -165.32 415.32 -166 416 C-160.06 415.67 -154.12 415.34 -148 415 C-149.57836298 411.31622777 -149.57836298 411.31622777 -151 410 C-150.16597656 409.96261719 -149.33195312 409.92523437 -148.47265625 409.88671875 C-142.35594567 409.52938514 -137.0064941 408.942062 -131.27734375 406.765625 C-126.97530629 405.31931395 -122.47268249 404.71061311 -118 404 C-118 404.66 -118 405.32 -118 406 C-116.55903414 405.57405412 -115.12231288 405.13373367 -113.6875 404.6875 C-112.88699219 404.44386719 -112.08648438 404.20023438 -111.26171875 403.94921875 C-108.90035427 402.95817977 -107.66120007 401.91925057 -106 400 C-109.48670834 401.1094072 -112.77484237 402.26337666 -116 404 C-110.0227246 397.52461832 -98.05088426 390.28455057 -89.17578125 389.8671875 C-88.45777344 389.91101562 -87.73976563 389.95484375 -87 390 C-89.31 392.31 -91.62 394.62 -94 397 C-93.34 397.33 -92.68 397.66 -92 398 C-86.47411979 393.81861177 -86.47411979 393.81861177 -82.875 388.125 C-82.441875 387.073125 -82.441875 387.073125 -82 386 C-78.875 385.1875 -78.875 385.1875 -76 385 C-75.67 385.66 -75.34 386.32 -75 387 C-70.62374089 382.83324266 -66.58476769 378.58936303 -62.875 373.8125 C-59.83797425 369.9493557 -57.05333036 366.79229425 -53 364 C-51.700625 363.8453125 -51.700625 363.8453125 -50.375 363.6875 C-47.87600522 363.24324185 -47.87600522 363.24324185 -46.80078125 361.171875 C-45.78806282 359.13933134 -44.85724257 357.10239937 -44 355 C-47.0048525 350.88305748 -50.44399754 347.94986247 -54.5 344.9375 C-63.92293433 337.73048666 -72.29352494 329.83616342 -79 320 C-79.66 320 -80.32 320 -81 320 C-81 320.66 -81 321.32 -81 322 C-81.99 322 -82.98 322 -84 322 C-84.26167969 321.40445313 -84.52335937 320.80890625 -84.79296875 320.1953125 C-88.40654498 313.62304764 -96.40295518 309.0708749 -102.34301758 304.64013672 C-105.84943764 301.9976636 -109.08892793 299.29453425 -112 296 C-112 295.01 -112 294.02 -112 293 C-113.8961684 291.40804795 -113.8961684 291.40804795 -116.3125 290 C-120.73941606 287.26258331 -120.73941606 287.26258331 -122.52734375 285.4609375 C-124.28089181 283.72134341 -126.06217782 282.76480946 -128.25 281.625 C-131.175845 280.03124703 -134.04576048 278.42093627 -136.8125 276.5625 C-137.33457031 276.21316406 -137.85664062 275.86382813 -138.39453125 275.50390625 C-140 274 -140 274 -141.828125 271.12890625 C-144.21100912 267.69601024 -146.5555519 265.80799604 -149.9375 263.375 C-154.80764132 259.79539769 -159.26233394 255.99336106 -163.625 251.8125 C-168.18171362 247.47713769 -172.76446001 244.0700639 -178.18359375 240.8359375 C-183.32669003 237.48329499 -187.83021719 233.33718391 -192.45849609 229.31933594 C-195.49333454 226.72189106 -198.64128086 224.26612404 -201.77734375 221.79296875 C-203.89135444 220.08764203 -205.91466429 218.31168376 -207.9375 216.5 C-213.40458353 212.03707467 -217.50271947 215.33206616 -223.25 217.9375 Z M41 246 C42 248 42 248 42 248 Z M40 248 C39.34 249.65 38.68 251.3 38 253 C38.99 252.01 39.98 251.02 41 250 C40.67 249.34 40.34 248.68 40 248 Z M37 253 C35.68 255.31 34.36 257.62 33 260 C33.66 260 34.32 260 35 260 C36.7536564 257.66057656 36.7536564 257.66057656 38 255 C37.67 254.34 37.34 253.68 37 253 Z M-2 390 C-1.67 390.66 -1.34 391.32 -1 392 C-0.34 391.67 0.32 391.34 1 391 C0.01 390.67 -0.98 390.34 -2 390 Z M112 459 C112 459.33 112 459.66 112 460 C113.65 460 115.3 460 117 460 C117 459.67 117 459.34 117 459 C115.35 459 113.7 459 112 459 Z " fill="#755196" transform="translate(1450,908)"/>
<path d="M0 0 C-1.25306083 2.50612166 -2.33478372 2.88384342 -4.8125 4.125 C-5.49957031 4.47820313 -6.18664063 4.83140625 -6.89453125 5.1953125 C-9 6 -9 6 -13 6 C-12 3 -12 3 -9.3125 1.3125 C-5.91018714 -0.03558623 -3.61672729 -0.25833766 0 0 Z " fill="#755196" transform="translate(1274,926)"/>
<path d="M0 0 C0 0.99 0 1.98 0 3 C-1.42578125 4.421875 -1.42578125 4.421875 -3.3125 5.75 C-3.92738281 6.19859375 -4.54226563 6.6471875 -5.17578125 7.109375 C-7 8 -7 8 -10 7 C-9.38125 6.7525 -8.7625 6.505 -8.125 6.25 C-5.62181694 4.77753937 -5.16954719 3.58971163 -4 1 C-2 0 -2 0 0 0 Z " fill="#755196" transform="translate(1381,1284)"/>
<path d="M0 0 C-0.33 0.66 -0.66 1.32 -1 2 C-4.3 2 -7.6 2 -11 2 C-6.78370866 -0.10814567 -4.60209225 -0.17700355 0 0 Z " fill="#755196" transform="translate(1473,996)"/>
<path d="M0 0 C4.75 1.875 4.75 1.875 7 3 C7 3.66 7 4.32 7 5 C4.0625 4.1875 4.0625 4.1875 1 3 C0.67 2.01 0.34 1.02 0 0 Z " fill="#755196" transform="translate(1188,1296)"/>
</svg>
